<svg xmlns="http://www.w3.org/2000/svg" xmlns:xlink="http://www.w3.org/1999/xlink" aria-hidden="true" role="img" class="iconify iconify--logos" width="31.88" height="32" preserveAspectRatio="xMidYMid meet" viewBox="0 0 256 228"><path fill="#61DAFB" d="M128 15.2c5.9 0 11.7 1.2 17.3 3.4c5.7 2.3 10.9 5.6 15.4 9.8c4.5 4.2 8.1 9.1 10.8 14.6c2.7 5.4 4.4 11.3 5.2 17.4c-.2.8-.4 1.7-.6 2.5c-1.4 5.4-3.6 10.6-6.7 15.4c-3 4.8-6.9 9-11.4 12.6c-4.5 3.5-9.6 6.3-15.2 8.4c-5.5 2.1-11.4 3.4-17.4 4c-2.9.3-5.8.4-8.7.4c-6.1 0-12.1-1.3-17.9-3.8c-5.8-2.5-11.1-6-15.7-10.3c-4.6-4.3-8.4-9.4-11.2-15c-2.8-5.7-4.6-11.8-5.3-18.1c-.1-.9-.1-1.8-.1-2.7c.4-5.6 2-11 4.7-16c2.7-5 6.3-9.5 10.8-13.1c4.5-3.7 9.7-6.6 15.5-8.7c5.7-2.1 11.7-3.3 17.7-3.3M128 0C60.8 0 6.2 46.1 0 111.2c19.3 17.3 44.6 28.4 72.8 31.9c-4-9.4-6.6-19.4-7.7-29.8c-1.7-15.1-.4-30.2 5-44.4c5.4-14.2 13.4-26.8 23.5-36.9c10.1-10.1 22.6-17.7 36.7-22.4c14.1-4.7 29.1-6.4 43.9-5c15 1.4 29.3 5.8 42.4 13c-2-6.2-4.7-12.1-8.2-17.6c-3.4-5.5-7.6-10.4-12.4-14.6C203.7 17.4 187.9 7.8 171.1 3C157.9 1 142.9 0 128 0m111.5 116.3c-2.5 10.4-6.4 20.4-11.6 29.6c-5.2 9.2-11.6 17.4-19.2 24.4c-7.6 7-16.3 12.8-25.8 17c-9.5 4.2-19.8 6.8-30.3 7.6c9.8-4.7 18.9-10.9 26.8-18.5c7.9-7.6 14.3-16.6 18.9-26.6c4.5-10 7.2-20.8 7.7-31.9c.6-11.1-.9-22.1-4.5-32.4c-3.6-10.3-9.2-19.8-16.5-27.9c-7.3-8.1-16.2-14.7-26.2-19.5c-10-4.8-20.8-7.7-31.9-8.4c-.6 13.4-2.6 26.6-6.1 39.2c-3.4 12.6-8.2 24.5-14.3 35.2c-6 10.7-13.2 20.1-21.4 27.9c-8.2 7.8-17.4 13.8-27.2 17.9c-1.9-.2-3.8-.4-5.6-.7c-.6 0-1.1.1-1.7.1c-16.8 0-33-5-47.6-14.6c-14.6-9.6-27.1-23.4-36.5-40.2C10 135.9 6.2 154.4 4.9 173.2c-1.3 18.8.7 37.8 6.9 55.9c6.2 18.1 16.4 34.6 30 48.3c13.6 13.7 30.3 24.4 48.7 31.5c18.4 7.1 38.1 10.6 58.2 10.2c6.2-.1 12.4-.4 18.5-.9c15.9-1.4 31.4-4.7 46-9.7c14.6-5 28.1-11.7 40-19.8c11.9-8.1 22-17.6 29.9-28c7.9-10.4 13.4-21.8 16.4-33.6c3-11.8 3.4-23.9 1.3-35.8l-.1-.8z"/><ellipse fill="#61DAFB" cx="128" cy="114" rx="49.6" ry="18.7"/></svg> 