<svg xmlns="http://www.w3.org/2000/svg" xmlns:xlink="http://www.w3.org/1999/xlink" aria-hidden="true" role="img" class="iconify iconify--logos" width="32" height="32" preserveAspectRatio="xMidYMid meet" viewBox="0 0 256 256"><defs><linearGradient id="IconifyId1813088fe1fbc01fb466" x1="-.828%" x2="57.636%" y1="7.652%" y2="78.411%"><stop offset="0%" stop-color="#41D1FF"/><stop offset="100%" stop-color="#BD34FE"/></linearGradient><linearGradient id="IconifyId1813088fe1fbc01fb467" x1="43.376%" x2="58.3%" y1="0%" y2="108.537%"><stop offset="0%" stop-color="#FFEA83"/><stop offset="8.333%" stop-color="#FFDD35"/><stop offset="100%" stop-color="#FFA800"/></linearGradient></defs><path fill="url(#IconifyId1813088fe1fbc01fb466)" d="M255.153 37.941L134.897 252.95c-2.48 4.308-7.76 5.39-11.042 2.451l-12.702-11.31c-2.04-1.814-2.424-4.815-1.002-7.2l78.228-130.31a7.99 7.99 0 0 0-5.52-13.086l-82.972-6.336c-3.45-.264-6.085-3.102-6.085-6.589V1.587c0-4.21 3.996-7.33 8.183-6.181l129.893 36.354a7.99 7.99 0 0 1 5.117 6.181z"/><path fill="url(#IconifyId1813088fe1fbc01fb467)" d="M183.415 103.198c-2.48-4.307-7.76-5.39-11.042-2.451l-12.702 11.31c-2.04 1.814-2.424 4.815-1.002 7.2l78.228 130.31a7.99 7.99 0 0 0 5.52 13.086l82.972 6.336c3.45.264 6.085 3.102 6.085 6.589v77.314c0 4.21-3.996 7.33-8.183 6.181L183.4 103.198z" transform="translate(-23.45 -114.5)"/></svg> 